<?xml version="1.0" encoding="UTF-8" standalone="no"?>
<svg
   data-v-51b36812=""
   width="138.41756"
   height="140.05511"
   version="1.1"
   id="svg6"
   xmlns="http://www.w3.org/2000/svg"
   xmlns:svg="http://www.w3.org/2000/svg">
  <defs
     id="defs6" />
  <g
     id="logo"
     transform="translate(-0.99122083,-0.972449)">
    <path
       d="m 47.7,12.7 c -1.8,9.5 -4,23.6 -5.2,37.9 -2.1,25.2 -0.8,42.1 -0.8,42.1 L 6.2,126.4 c 0,0 -2.7,-18.9 -4.1,-40.2 C 1.3,73 1,61.4 1,54.4 1,54 1.2,53.6 1.2,53.2 1.2,52.7 1.8,48 6.4,43.6 11.4,38.8 48.3,9.9 47.7,12.7 Z"
       fill="#1496ff"
       id="path1" />
    <path
       d="m 47.7,12.7 c -1.8,9.5 -4,23.6 -5.2,37.9 0,0 -39.3,-4.7 -41.5,4.8 0,-0.5 0.7,-6.3 5.3,-10.7 5,-4.8 42,-34.8 41.4,-32 z"
       fill="#1284ea"
       id="path2" />
    <path
       d="m 1,53.1 v 2.2 c 0.4,-1.7 1.1,-2.9 2.5,-4.8 2.9,-3.7 7.6,-4.7 9.5,-4.9 9.6,-1.3 23.8,-2.8 38.1,-3.2 25.3,-0.8 42,1.3 42,1.3 L 128.6,10 C 128.6,10 110,6.5 88.8,4 74.9,2.3 62.7,1.4 55.8,1 55.3,1 50.4,0.4 45.8,4.8 40.8,9.6 15.4,33.7 5.2,43.4 0.6,47.8 1,52.7 1,53.1 Z"
       fill="#b4dc00"
       id="path3" />
    <path
       d="m 127.3,96.2 c -9.6,1.3 -23.8,2.9 -38.1,3.4 -25.3,0.8 -42.1,-1.3 -42.1,-1.3 l -35.5,33.8 c 0,0 18.8,3.7 40,6.1 13,1.5 24.5,2.3 31.5,2.7 0.5,0 1.3,-0.4 1.8,-0.4 0.5,0 5.4,-0.9 10,-5.3 5,-4.8 35.2,-39.3 32.4,-39 z"
       fill="#6f2da8"
       id="path4" />
    <path
       d="m 127.3,96.2 c -9.6,1.3 -23.8,2.9 -38.1,3.4 0,0 2.7,39.5 -6.8,41.2 0.5,0 7,-0.3 11.6,-4.7 5,-4.8 36.1,-40.2 33.3,-39.9 z"
       fill="#591f91"
       id="path5" />
    <path
       d="m 84.5,141 c -0.7,0 -1.4,-0.1 -2.2,-0.1 1.8,-0.3 3,-0.9 4.9,-2.3 3.8,-2.7 5,-7.4 5.4,-9.3 1.7,-9.5 4,-23.6 5.1,-37.9 2,-25.2 0.8,-42 0.8,-42 L 134,15.6 c 0,0 2.6,18.8 4.1,40.1 0.9,13.9 1.2,26.2 1.3,33 0,0.5 0.4,5.4 -4.2,9.8 -5,4.8 -30.4,29 -40.5,38.7 -4.8,4.4 -9.7,3.8 -10.2,3.8 z"
       fill="#73be28"
       id="path6" />
  </g>
</svg>
