<?xml version="1.0" encoding="UTF-8" standalone="no"?>
<!-- Created with Inkscape (http://www.inkscape.org/) -->

<svg
   width="1177.6073mm"
   height="377.5083mm"
   viewBox="0 0 1177.6073 377.5083"
   version="1.1"
   id="svg1"
   xmlns:inkscape="http://www.inkscape.org/namespaces/inkscape"
   xmlns:sodipodi="http://sodipodi.sourceforge.net/DTD/sodipodi-0.dtd"
   xmlns="http://www.w3.org/2000/svg"
   xmlns:svg="http://www.w3.org/2000/svg">
  <sodipodi:namedview
     id="namedview1"
     pagecolor="#ffffff"
     bordercolor="#000000"
     borderopacity="0.25"
     inkscape:showpageshadow="2"
     inkscape:pageopacity="0.0"
     inkscape:pagecheckerboard="0"
     inkscape:deskcolor="#d1d1d1"
     inkscape:document-units="mm">
    <inkscape:page
       x="0"
       y="0"
       width="1177.6073"
       height="377.5083"
       id="page2"
       margin="0"
       bleed="0" />
  </sodipodi:namedview>
  <defs
     id="defs1" />
  <g
     inkscape:label="Layer 1"
     inkscape:groupmode="layer"
     id="layer1"
     transform="translate(395.28748,183.62075)">
    <path
       d="m -208.88857,-66.622011 c -0.0794,121.179151 -0.0529,118.321651 -1.13771,126.153317 -1.50812,10.953749 -4.49791,20.452289 -8.51958,27.09333 -0.60854,0.978958 -1.11125,1.852083 -1.11125,1.905 0,0.07937 -0.13229,0.264583 -0.26458,0.449791 -0.15875,0.185209 -1.03188,1.322917 -1.95792,2.566458 -6.90562,9.286875 -16.93333,15.187085 -29.65979,17.436035 -13.22916,2.3548 -27.83416,0.7673 -41.06332,-4.49791 -4.49792,-1.77271 -11.35063,-5.450417 -16.21896,-8.678334 -2.30188,-1.508124 -8.96937,-6.455832 -9.92187,-7.328957 -0.29105,-0.291042 -0.9525,-0.846667 -1.45521,-1.27 -4.18042,-3.439583 -12.22375,-11.191873 -17.43604,-16.827498 l -1.08479,-1.190625 -0.68792,0.79375 c -0.39688,0.423334 -1.27,1.402292 -1.93146,2.143125 -0.66146,0.740833 -3.06916,3.413125 -5.31812,5.953124 -2.24896,2.54 -4.86834,5.450416 -5.82084,6.455833 -3.12208,3.386666 -3.96874,4.339166 -5.05354,5.609166 -0.60854,0.687916 -1.69333,1.931458 -2.46062,2.725208 -0.74083,0.79375 -1.74625,1.931458 -2.24896,2.513541 -0.50271,0.582083 -1.87854,2.116667 -3.06917,3.439583 -1.19062,1.296454 -3.38666,3.757084 -4.89479,5.423954 -1.48166,1.66688 -3.62479,4.04813 -4.7625,5.29167 -1.11125,1.24354 -3.75708,4.18042 -5.84729,6.50875 -2.0902,2.35479 -6.2177,6.95854 -9.15458,10.21291 l -5.31812,5.95313 1.08479,1.29646 c 1.08479,1.29645 2.09021,2.4077 5.60916,6.19125 4.18042,4.52437 11.21834,11.24479 14.94896,14.28749 0.79375,0.66146 1.61396,1.34938 1.85208,1.56105 0.7673,0.74083 5.18584,4.18041 7.67292,6.00604 17.56833,12.8852 37.62374,22.06624 59.00208,27.06687 6.56166,1.53458 8.59895,1.905 15.7427,2.93687 14.44625,2.09021 33.09937,2.43417 48.81562,0.89959 8.86354,-0.84667 19.92312,-2.80459 26.9875,-4.73605 0.79375,-0.21166 2.32833,-0.635 3.38666,-0.89958 9.26042,-2.51354 21.19313,-7.43479 29.28937,-12.065 1.45521,-0.84666 3.06917,-1.74625 3.57188,-2.03729 2.43417,-1.37583 9.49854,-6.27062 12.56771,-8.75771 21.88103,-17.56833 36.3802,-41.88353 43.39166,-72.81332 1.71979,-7.619999 2.91041,-15.398748 3.88937,-25.532288 l 0.58208,-5.953124 0.0794,-121.655402 0.0794,-121.628946 h -46.03749 -46.03749 z"
       id="path1"
       style="stroke-width:0.0264583" />
    <path
       d="m 426.00552,-79.057427 c 0.0794,76.1735325 0.18521,105.701029 0.39687,108.69082 1.42875,18.917706 3.175,30.718121 6.69396,44.979161 2.01083,8.096249 6.37646,21.193122 8.99583,26.934576 0.42334,0.89959 0.76729,1.69334 0.76729,1.74625 0,0.0529 0.47625,1.16417 1.0848,2.46063 5.34458,11.53583 11.48291,21.56354 18.99708,31.03562 1.08479,1.37583 2.35479,2.91042 2.80458,3.41312 0.42333,0.50271 1.45521,1.61396 2.24896,2.51355 2.59291,2.91041 6.69396,7.03791 9.65729,9.73666 1.61396,1.42875 3.20146,2.91042 3.57187,3.22792 3.54542,3.30729 13.09688,10.05416 19.84375,14.04937 3.30729,1.95792 14.12875,7.51417 16.27187,8.33437 0.74084,0.26459 2.32834,0.92605 3.57188,1.45521 3.06916,1.32292 5.87375,2.35479 9.92187,3.70417 5.50333,1.85208 7.38188,2.40771 12.30313,3.67771 13.01749,3.38666 24.20937,5.18583 40.34895,6.5352 5.45041,0.4498 27.46374,0.60855 34.13124,0.26459 27.99292,-1.50813 51.99062,-6.93209 73.60708,-16.58938 3.73062,-1.66687 9.71021,-4.68312 12.27666,-6.19124 0.71438,-0.4498 1.37584,-0.79375 1.42875,-0.79375 0.18521,0 5.84729,-3.51896 8.59896,-5.37105 10.34521,-6.87916 20.84916,-16.32479 29.23645,-26.24666 1.64042,-1.93146 1.93146,-2.30187 4.52438,-5.68854 1.95792,-2.56646 6.95854,-10.00125 8.89,-13.22916 6.53521,-10.95375 12.27666,-24.130002 16.21895,-37.173959 0.39688,-1.322916 0.9525,-3.095624 1.21709,-3.968749 1.11125,-3.65125 3.25437,-12.858748 4.33916,-18.785414 2.19605,-11.853332 3.54542,-24.341664 4.10104,-38.099996 0.15875,-4.127499 0.26459,-43.947286 0.26459,-105.912695 v -99.271657 h -44.97916 -44.97916 v 101.811657 c 0,69.453116 -0.0794,103.161029 -0.29105,106.044987 -1.1377,17.144998 -4.81541,31.988121 -10.92729,44.291244 -1.27,2.566458 -5.29166,9.472082 -5.68854,9.789582 -0.10583,0.07937 -0.74083,0.9525 -1.4552,1.931458 -3.06917,4.365625 -8.33438,9.789582 -13.30854,13.758332 -10.98021,8.73125 -24.95021,14.18166 -41.88354,16.35125 -5.50333,0.68791 -18.15042,0.97896 -23.68021,0.52916 -25.05603,-2.06375 -43.92082,-11.033119 -57.44103,-27.278534 -12.83229,-15.398748 -19.92312,-36.300828 -21.53708,-63.3677 -0.15875,-2.883958 -0.26458,-40.534162 -0.26458,-104.192904 V -183.62075 H 470.9053 425.89968 Z"
       id="path2"
       style="stroke-width:0.0264583" />
    <path
       d="m -49.79463,-129.56638 v 53.816245 l 1.137708,1.031875 c 0.608542,0.582083 2.196041,1.957916 3.4925,3.069166 7.355415,6.270624 10.742082,9.18104 12.170831,10.398124 0.873125,0.767291 4.206875,3.624791 7.408333,6.349999 3.201458,2.751666 6.535207,5.609166 7.408332,6.349999 2.354792,2.037291 10.9802071,9.419165 12.0385403,10.29229 0.5027083,0.423334 1.6933331,1.455208 2.645833,2.275417 1.8256248,1.613958 10.6097903,9.128124 12.1708318,10.424582 0.5027083,0.423333 1.6933329,1.455208 2.6458329,2.275416 0.9525,0.846667 3.862916,3.360208 6.482291,5.582708 5.847291,4.974166 7.461249,6.349999 8.413749,7.223124 0.423333,0.343958 1.243541,1.058333 1.825625,1.534583 0.608541,0.4762499 1.217083,1.0054165 1.375833,1.1377082 0.15875,0.1587499 2.725208,2.3812497 5.714999,4.9212493 2.989791,2.53999971 5.609166,4.8154161 5.820833,5.0270827 0.211666,0.2116667 0.926041,0.7937499 1.587499,1.3229165 0.661459,0.5291666 1.481667,1.2435415 1.852084,1.5610415 0.370416,0.3175 2.090208,1.7991664 3.809999,3.2808329 1.74625,1.4552082 4.1275,3.5189579 5.291666,4.5243749 1.190625,1.031874 2.910416,2.513541 3.862916,3.307291 0.9525,0.79375 1.852083,1.5875 2.037292,1.74625 0.15875,0.15875 1.772708,1.534583 3.545416,3.042708 1.799166,1.508124 4.206874,3.598332 5.371041,4.603749 1.190625,1.031875 2.910416,2.513541 3.862916,3.307291 0.9525,0.79375 1.772708,1.508125 1.852083,1.5875 0.185209,0.211667 5.212291,4.497916 7.937499,6.799791 1.243542,1.031875 2.487083,2.116666 2.778125,2.38125 0.3175,0.264583 1.322916,1.137708 2.248958,1.931458 0.9525,0.79375 1.772708,1.508124 1.852083,1.587499 0.07937,0.105834 2.169583,1.878542 4.630208,3.96875 5.423957,4.603749 10.001253,8.519582 10.186453,8.731249 0.0794,0.105833 2.93688,2.539999 6.35,5.423957 3.41313,2.910417 7.17021,6.111875 8.33438,7.14375 1.79916,1.587499 14.04937,12.091456 17.43604,14.948956 0.58208,0.502708 3.9952,3.413125 7.54062,6.482291 3.57188,3.042708 7.51417,6.429374 8.81062,7.514166 1.27,1.058333 2.32834,2.063749 2.32834,2.169583 0,0.132291 -44.50291,0.238125 -102.129156,0.238125 H -49.79463 v 44.317702 44.3177 h 204.3906 204.3906 V 144.06567 99.747968 H 257.01616 c -56.09166,0 -102.04977,-0.07937 -102.12915,-0.211667 -0.0529,-0.105833 2.27542,-2.248958 5.21229,-4.736041 2.93688,-2.513541 8.44021,-7.196666 12.22375,-10.45104 3.78354,-3.254375 9.86896,-8.440208 13.49375,-11.562291 3.65125,-3.095624 7.80521,-6.667499 9.26041,-7.937499 1.45521,-1.27 5.15938,-4.444999 8.20209,-7.037915 3.06916,-2.592917 6.32354,-5.3975 7.27604,-6.217708 1.905,-1.666875 6.2177,-5.371041 10.87437,-9.313332 1.66688,-1.402292 3.25438,-2.778125 3.54542,-3.042708 0.29104,-0.264583 1.29646,-1.137708 2.24895,-1.931458 0.92605,-0.79375 1.93146,-1.666875 2.24896,-1.931458 0.29104,-0.264584 1.53459,-1.349375 2.77813,-2.38125 2.43416,-2.06375 5.29166,-4.497916 7.8052,-6.667499 6.08542,-5.265208 7.46125,-6.429374 8.30792,-7.143749 0.9525,-0.767292 5.715,-4.841875 7.3025,-6.244166 0.44979,-0.396875 3.41312,-2.936875 6.61458,-5.6620827 3.20146,-2.7516664 6.53521,-5.609166 7.40833,-6.37645758 0.87313,-0.76729157 1.95792,-1.66687479 2.38125,-1.98437472 0.4498,-0.3439583 1.27,-1.0583332 1.85209,-1.5874998 0.58208,-0.5291666 1.48166,-1.3229165 1.98437,-1.7197915 0.9525,-0.7937499 8.38729,-7.1702077 8.89,-7.6464577 0.15875,-0.132291 0.76729,-0.661458 1.37583,-1.137708 0.58209,-0.47625 1.4023,-1.190625 1.82563,-1.534583 0.9525,-0.873125 2.56646,-2.248958 8.41375,-7.223124 2.61937,-2.2225 5.52979,-4.736041 6.48229,-5.582708 0.9525,-0.820208 2.14312,-1.852083 2.64583,-2.275416 1.34938,-1.11125 10.16,-8.678332 12.17083,-10.424582 0.9525,-0.820208 2.14313,-1.852083 2.64584,-2.275416 1.05833,-0.873125 9.68375,-8.254999 12.03854,-10.292291 0.87312,-0.740833 4.20687,-3.598333 7.40833,-6.349999 3.20146,-2.725208 6.53521,-5.582708 7.40833,-6.349999 0.87313,-0.767292 2.91042,-2.513542 4.52438,-3.862916 1.61395,-1.375834 3.88937,-3.33375 5.08,-4.339167 l 2.16958,-1.852083 V -129.487 c 0,-50.42958 -0.0265,-53.92208 -0.44979,-53.57812 -1.61396,1.32291 -21.96042,18.7325 -25.61167,21.9075 -1.4552,1.27 -5.50333,4.73604 -8.99583,7.69937 -3.4925,2.96333 -6.40291,5.47687 -6.48229,5.55625 -0.18521,0.21167 -4.81542,4.18041 -10.18646,8.73125 -2.46062,2.09021 -4.55083,3.86291 -4.6302,3.96875 -0.0794,0.0794 -0.89959,0.79375 -1.85209,1.5875 -0.92604,0.79375 -1.93146,1.66687 -2.24896,1.93146 -0.29104,0.26458 -1.53458,1.34937 -2.77812,2.38124 -2.88396,2.43417 -7.77875,6.61459 -7.9375,6.7998 -0.0794,0.0794 -0.89958,0.79375 -1.85208,1.5875 -0.92604,0.79375 -2.11667,1.82562 -2.64584,2.30187 -0.5027,0.44979 -1.82562,1.56104 -2.91041,2.48708 -2.32833,1.93146 -7.22313,6.11188 -7.40833,6.32354 -0.0794,0.0794 -0.89959,0.79375 -1.85209,1.5875 -0.9525,0.79375 -2.67229,2.27542 -3.86291,3.3073 -1.16417,1.00541 -3.57188,3.09562 -5.37104,4.60374 -1.77271,1.508129 -3.38667,2.883962 -3.54542,3.042712 -0.18521,0.15875 -1.08479,0.9525 -2.03729,1.74625 -0.9525,0.79375 -2.67229,2.275417 -3.86292,3.307291 -1.16416,1.005417 -3.67771,3.148542 -5.55625,4.7625 -1.87854,1.5875 -3.75708,3.227916 -4.20687,3.598333 -0.42334,0.396875 -3.41313,2.936874 -6.61458,5.662082 -3.20146,2.751667 -6.53521,5.609166 -7.40834,6.376458 -0.87312,0.767291 -1.93146,1.666875 -2.38125,1.984375 -0.42333,0.343958 -0.97895,0.79375 -1.19062,1.005416 -0.21167,0.211667 -2.83104,2.487083 -5.82083,5.027083 -2.9898,2.54 -5.55625,4.762499 -5.715,4.921249 -0.15875,0.132292 -0.76729,0.661459 -1.37584,1.137708 -0.58208,0.47625 -1.40229,1.190625 -1.82562,1.534584 -0.39688,0.370416 -1.40229,1.217083 -2.19604,1.904999 -2.80459,2.407708 -9.12813,7.858124 -9.41917,8.122708 -0.15875,0.132291 -0.76729,0.661458 -1.37583,1.137708 -0.58208,0.47625 -1.40229,1.190625 -1.82563,1.534583 -0.9525,0.873125 -2.56645,2.248958 -8.41375,7.223124 -2.61937,2.2225 -5.52979,4.736041 -6.48229,5.582708 -0.9525,0.820208 -2.14312,1.852083 -2.64583,2.275416 -1.56104,1.296458 -10.34521,8.810624 -12.17083,10.424582 -0.9525,0.820208 -2.14313,1.852083 -2.64583,2.275416 -0.50271,0.423334 -2.64584,2.2225 -4.70959,4.021667 -3.38666,2.9104159 -3.86291,3.2279159 -4.23333,2.8839576 -0.26458,-0.1852083 -1.27,-1.0583332 -2.30187,-1.9049996 -1.00542,-0.846667 -2.61938,-2.2225 -3.57188,-3.042708 -2.14312,-1.878542 -10.92729,-9.392707 -12.17083,-10.424582 -0.50271,-0.423333 -1.69333,-1.455208 -2.64583,-2.275416 -1.69334,-1.508125 -10.39813,-8.942916 -12.17084,-10.424583 -0.5027,-0.423333 -1.69333,-1.455208 -2.64583,-2.275416 -0.9525,-0.846666 -3.86291,-3.360208 -6.48229,-5.582708 -5.84729,-4.974166 -7.46125,-6.349999 -8.41375,-7.223124 -0.42333,-0.343958 -1.24354,-1.058333 -1.82562,-1.534583 -0.60854,-0.47625 -1.21709,-1.005416 -1.37584,-1.137708 -0.5027,-0.47625 -7.937495,-6.852707 -8.889995,-7.646457 -0.502708,-0.396875 -1.402291,-1.190625 -1.984374,-1.719792 -0.582084,-0.529166 -1.613959,-1.402291 -2.301875,-1.957916 -0.687917,-0.555625 -1.402292,-1.137708 -1.5875,-1.322917 -0.185208,-0.185208 -2.778125,-2.434166 -5.767916,-4.974166 -2.989791,-2.539999 -5.609166,-4.815416 -5.820832,-5.027082 -0.211667,-0.211667 -0.926042,-0.79375 -1.5875,-1.322917 -0.661459,-0.529167 -1.481667,-1.243541 -1.852083,-1.561041 -0.370417,-0.3175 -2.090208,-1.799167 -3.81,-3.280833 -1.74625,-1.455208 -4.127499,-3.518958 -5.291666,-4.524375 -1.190625,-1.031875 -2.910416,-2.513541 -3.862916,-3.307291 -0.9525,-0.79375 -1.852083,-1.5875 -2.037292,-1.74625 -0.158749,-0.15875 -1.772708,-1.534583 -3.545416,-3.042708 -1.799166,-1.508125 -4.206874,-3.598333 -5.371041,-4.603747 -1.190625,-1.03188 -2.910416,-2.51354 -3.862916,-3.30729 -0.9525,-0.79375 -1.852083,-1.5875 -2.037291,-1.74625 -0.15875,-0.15875 -1.772708,-1.53459 -3.545417,-3.04271 -1.799166,-1.50813 -4.206874,-3.59833 -5.371041,-4.60375 -1.190624,-1.03188 -2.910416,-2.51354 -3.862916,-3.30729 -0.9525,-0.79375 -1.772708,-1.50813 -1.852083,-1.5875 -0.185208,-0.21167 -5.212291,-4.49792 -7.937499,-6.79979 -1.243541,-1.03188 -2.487083,-2.11667 -2.778124,-2.38125 -0.3175,-0.26459 -1.322917,-1.13771 -2.248959,-1.93146 -0.952499,-0.79375 -1.957916,-1.66687 -2.248958,-1.93146 -0.291041,-0.26458 -1.878541,-1.64041 -3.5454158,-3.04271 -5.212291,-4.445 -9.1281238,-7.77875 -10.0806237,-8.62541 -0.5027083,-0.47625 -2.9368746,-2.56646 -5.4239577,-4.65667 -2.4606248,-2.09021 -6.1647908,-5.26521 -8.2020818,-7.01146 -2.010834,-1.74625 -6.19125,-5.31812 -9.260416,-7.91104 -3.042708,-2.61937 -6.746874,-5.79437 -8.202082,-7.06437 -4.683125,-4.07458 -16.033748,-13.73187 -16.16604,-13.73187 -0.05292,0 -0.105833,24.20937 -0.105833,53.78978 z"
       id="path3"
       inkscape:export-filename="../cb8053d8/JKU-cropped.svg"
       inkscape:export-xdpi="96"
       inkscape:export-ydpi="96"
       style="stroke-width:0.0264583" />
  </g>
</svg>
